<svg xmlns="http://www.w3.org/2000/svg" version="1.1" width="1440px" height="866px">
    <g>
        <path style="opacity:1" fill="#06bdf6"
            d="M -0.5,-0.5 C 479.5,-0.5 959.5,-0.5 1439.5,-0.5C 1439.5,190.5 1439.5,381.5 1439.5,572.5C 1376.31,595.645 1311.31,612.145 1244.5,622C 1211.29,626.807 1177.96,630.473 1144.5,633C 1091.17,634.659 1037.83,636.326 984.5,638C 925.972,645.37 869.639,660.704 815.5,684C 758.593,709.786 701.926,736.12 645.5,763C 590.329,788.835 532.996,808.502 473.5,822C 419.882,832.815 365.715,837.649 311,836.5C 246.92,836.79 183.42,830.957 120.5,819C 90.2262,813.019 60.8928,804.019 32.5,792C 20.8709,787.188 9.87087,781.354 -0.5,774.5C -0.5,516.167 -0.5,257.833 -0.5,-0.5 Z" />
    </g>
    <g>
        <path style="opacity:1" fill="#dadcfa"
            d="M 1439.5,572.5 C 1439.5,583.167 1439.5,593.833 1439.5,604.5C 1340.2,637.884 1238.2,657.384 1133.5,663C 1086.17,664.7 1038.84,666.033 991.5,667C 937.157,673.002 884.824,686.669 834.5,708C 810.931,717.784 787.598,728.117 764.5,739C 709.667,766.251 654,791.585 597.5,815C 517.071,846.919 433.738,863.752 347.5,865.5C 325.167,865.5 302.833,865.5 280.5,865.5C 213.707,864.234 147.707,855.734 82.5,840C 53.6302,832.545 25.9635,822.045 -0.5,808.5C -0.5,797.167 -0.5,785.833 -0.5,774.5C 9.87087,781.354 20.8709,787.188 32.5,792C 60.8928,804.019 90.2262,813.019 120.5,819C 183.42,830.957 246.92,836.79 311,836.5C 365.715,837.649 419.882,832.815 473.5,822C 532.996,808.502 590.329,788.835 645.5,763C 701.926,736.12 758.593,709.786 815.5,684C 869.639,660.704 925.972,645.37 984.5,638C 1037.83,636.326 1091.17,634.659 1144.5,633C 1177.96,630.473 1211.29,626.807 1244.5,622C 1311.31,612.145 1376.31,595.645 1439.5,572.5 Z" />
    </g>
</svg>